<svg width="360" height="321" viewBox="0 0 360 321" fill="none" xmlns="http://www.w3.org/2000/svg">
<path d="M49.6509 20.2751C36.4764 20.2751 25.7667 30.9637 25.7667 44.1121C25.7667 57.2605 36.4764 67.949 49.6509 67.949C62.8253 67.949 73.5334 57.2604 73.5334 44.1121C73.5334 30.9637 62.8253 20.2752 49.6509 20.2751ZM49.6509 23.0148C61.3416 23.0148 70.7884 32.4445 70.7884 44.1121C70.7884 55.7797 61.3416 65.2078 49.6509 65.2078C37.9601 65.2078 28.5118 55.7797 28.5118 44.1121C28.5118 32.4444 37.9601 23.0148 49.6509 23.0148Z" fill="#001B13"/>
<path d="M51.7829 4.10243C51.6035 4.08162 51.4216 4.09631 51.2479 4.14567C51.0742 4.19503 50.9119 4.27808 50.7703 4.39007C50.6288 4.50207 50.5108 4.64081 50.4231 4.79837C50.3353 4.95592 50.2794 5.12921 50.2588 5.30831L49.079 15.5196C49.0373 15.881 49.1412 16.2442 49.3678 16.5291C49.5944 16.8141 49.9251 16.9976 50.2872 17.0392C50.4665 17.0598 50.6481 17.0449 50.8217 16.9955C50.9952 16.946 51.1575 16.863 51.2989 16.751C51.4402 16.639 51.558 16.5003 51.6457 16.3429C51.7334 16.1854 51.7892 16.0123 51.8098 15.8333L52.9896 5.62199C53.0313 5.26082 52.9276 4.8979 52.7014 4.61297C52.4751 4.32804 52.1448 4.14441 51.7829 4.10243Z" fill="#001B13"/>
<path fill-rule="evenodd" clip-rule="evenodd" d="M64.4818 19.6689C64.4818 19.9671 64.363 20.2531 64.1517 20.4639C63.9405 20.6747 63.654 20.7932 63.3553 20.7932C63.0565 20.7932 62.7699 20.6747 62.5587 20.4639C62.3474 20.2531 62.2288 19.9671 62.2288 19.6689C62.2288 19.3708 62.3474 19.0848 62.5587 18.874C62.7699 18.6631 63.0565 18.5447 63.3553 18.5447C63.654 18.5447 63.9405 18.6631 64.1517 18.874C64.363 19.0848 64.4818 19.3708 64.4818 19.6689Z" fill="#001B13"/>
<path fill-rule="evenodd" clip-rule="evenodd" d="M78.2848 51.1562C78.2848 51.4544 78.1661 51.7404 77.9549 51.9512C77.7436 52.162 77.457 52.2805 77.1583 52.2805C76.8595 52.2805 76.5731 52.162 76.3618 51.9512C76.1506 51.7404 76.0317 51.4544 76.0317 51.1562C76.0317 50.8581 76.1506 50.5721 76.3618 50.3613C76.5731 50.1504 76.8595 50.032 77.1583 50.032C77.457 50.032 77.7436 50.1504 77.9549 50.3613C78.1661 50.5721 78.2848 50.8581 78.2848 51.1562Z" fill="#001B13"/>
<path fill-rule="evenodd" clip-rule="evenodd" d="M155.493 90.5075C155.493 90.8057 155.374 91.0917 155.163 91.3025C154.951 91.5133 154.665 91.6318 154.366 91.6318C154.067 91.6318 153.781 91.5133 153.57 91.3025C153.358 91.0917 153.24 90.8057 153.24 90.5075C153.24 90.2094 153.358 89.9234 153.57 89.7126C153.781 89.5017 154.067 89.3833 154.366 89.3833C154.665 89.3833 154.951 89.5017 155.163 89.7126C155.374 89.9234 155.493 90.2094 155.493 90.5075Z" fill="#001B13"/>
<path fill-rule="evenodd" clip-rule="evenodd" d="M34.2468 68.6802C34.2468 68.9783 34.1282 69.2643 33.9169 69.4751C33.7057 69.686 33.4191 69.8044 33.1203 69.8044C32.8215 69.8044 32.5351 69.686 32.3239 69.4751C32.1126 69.2643 31.9938 68.9783 31.9938 68.6802C31.9938 68.382 32.1126 68.096 32.3239 67.8852C32.5351 67.6744 32.8215 67.5559 33.1203 67.5559C33.4191 67.5559 33.7057 67.6744 33.9169 67.8852C34.1282 68.096 34.2468 68.382 34.2468 68.6802Z" fill="#001B13"/>
<path d="M88.5189 21.3409L75.8393 28.718C75.5245 28.9014 75.2956 29.202 75.2029 29.5538C75.1102 29.9055 75.1613 30.2796 75.3449 30.5938C75.5286 30.9079 75.8299 31.1364 76.1824 31.2289C76.5348 31.3214 76.9096 31.2704 77.2244 31.0872L89.9041 23.7101C90.2188 23.5267 90.4477 23.2261 90.5404 22.8743C90.6331 22.5226 90.5821 22.1485 90.3984 21.8343C90.2147 21.5201 89.9136 21.2917 89.5611 21.1992C89.2087 21.1067 88.8337 21.1576 88.5189 21.3409Z" fill="#001B13"/>
<path d="M78.0427 39.6593C77.8633 39.6394 77.6816 39.655 77.5083 39.7051C77.3349 39.7553 77.1732 39.839 77.0323 39.9516C76.8913 40.0642 76.774 40.2033 76.687 40.3612C76.5999 40.519 76.5448 40.6924 76.5249 40.8714C76.5049 41.0505 76.5206 41.2317 76.5709 41.4048C76.6211 41.5778 76.7051 41.7393 76.8179 41.8799C76.9306 42.0206 77.07 42.1377 77.2281 42.2246C77.3863 42.3115 77.56 42.3664 77.7395 42.3863L82.931 42.9616C83.1105 42.9815 83.2921 42.9659 83.4655 42.9158C83.6389 42.8656 83.8005 42.7819 83.9415 42.6693C84.0824 42.5568 84.1999 42.4176 84.287 42.2597C84.374 42.1019 84.429 41.9285 84.4489 41.7494C84.4688 41.5704 84.4531 41.3892 84.4029 41.2161C84.3526 41.0431 84.2687 40.8816 84.1559 40.7409C84.0431 40.6003 83.9038 40.4831 83.7456 40.3963C83.5875 40.3094 83.4137 40.2545 83.2343 40.2346L78.0427 39.6593Z" fill="#001B13"/>
<path d="M69.2673 62.5032C69.1203 62.3986 68.954 62.324 68.7781 62.2835C68.6021 62.2431 68.4199 62.2376 68.2419 62.2675C68.0638 62.2974 67.8932 62.362 67.7402 62.4576C67.5872 62.5532 67.4546 62.678 67.3499 62.8248C67.2451 62.9715 67.1703 63.1374 67.1297 63.3131C67.0892 63.4887 67.0838 63.6705 67.1138 63.8482C67.1437 64.0259 67.2083 64.196 67.3041 64.3488C67.3999 64.5015 67.525 64.6339 67.6721 64.7384L78.338 72.3189C78.485 72.4235 78.6513 72.4981 78.8272 72.5386C79.0032 72.579 79.1854 72.5844 79.3634 72.5546C79.5415 72.5247 79.7118 72.4601 79.8649 72.3645C80.0179 72.2689 80.1507 72.1441 80.2554 71.9973C80.4666 71.7011 80.5512 71.3333 80.4907 70.9747C80.4303 70.6162 80.2298 70.2963 79.9332 70.0853L69.2673 62.5032Z" fill="#001B13"/>
<path d="M57.1405 70.7376C56.8645 70.9751 56.6944 71.3123 56.6675 71.675C56.6405 72.0377 56.7589 72.3962 56.9968 72.6718L59.1069 75.1198C59.3449 75.3952 59.6826 75.565 60.0461 75.5919C60.4095 75.6188 60.7688 75.5006 61.0449 75.2632C61.3211 75.0259 61.4916 74.6889 61.5189 74.3262C61.5461 73.9635 61.4278 73.6048 61.1902 73.3291L59.08 70.8827C58.9623 70.7459 58.8188 70.6337 58.6575 70.5524C58.4963 70.4711 58.3206 70.4223 58.1405 70.4089C57.9603 70.3954 57.7792 70.4175 57.6076 70.4739C57.436 70.5303 57.2773 70.6199 57.1405 70.7376Z" fill="#001B13"/>
<path d="M44.6487 70.5343C44.4787 70.4735 44.2983 70.4467 44.118 70.4555C43.9377 70.4642 43.7608 70.5084 43.5976 70.5854C43.4343 70.6624 43.2879 70.7707 43.1666 70.9042C43.0453 71.0377 42.9516 71.1938 42.8908 71.3634L40.3921 78.3197C40.3312 78.4893 40.3044 78.6693 40.3132 78.8493C40.3219 79.0293 40.3661 79.2058 40.4433 79.3687C40.5204 79.5316 40.6289 79.6778 40.7627 79.7988C40.8965 79.9199 41.0529 80.0134 41.2229 80.0741C41.3929 80.1349 41.5732 80.1617 41.7536 80.153C41.9339 80.1442 42.1108 80.1001 42.274 80.0231C42.4373 79.9461 42.5837 79.8377 42.705 79.7042C42.8263 79.5707 42.92 79.4147 42.9808 79.245L45.4795 72.2887C45.5404 72.1191 45.5672 71.9392 45.5584 71.7592C45.5497 71.5792 45.5055 71.4027 45.4283 71.2397C45.3512 71.0768 45.2427 70.9307 45.1089 70.8096C44.9751 70.6886 44.8187 70.595 44.6487 70.5343Z" fill="#001B13"/>
<path d="M21.0015 56.1583C20.834 56.0913 20.6548 56.058 20.4743 56.0602C20.2938 56.0623 20.1156 56.0999 19.9496 56.1709L10.86 60.0565C10.6941 60.1274 10.5438 60.2303 10.4177 60.3593C10.2916 60.4883 10.1921 60.6408 10.1251 60.8081C10.0581 60.9754 10.0247 61.1543 10.027 61.3344C10.0292 61.5146 10.067 61.6926 10.1382 61.8582C10.2093 62.0238 10.3124 62.1738 10.4417 62.2997C10.5709 62.4255 10.7237 62.5247 10.8913 62.5916C11.059 62.6585 11.2382 62.6918 11.4187 62.6896C11.5993 62.6873 11.7776 62.6496 11.9435 62.5786L21.0331 58.693C21.1991 58.622 21.3495 58.5191 21.4756 58.3901C21.6017 58.2611 21.701 58.1086 21.7681 57.9413C21.8351 57.774 21.8684 57.5952 21.8662 57.415C21.8639 57.2348 21.8261 57.0568 21.7549 56.8912C21.6837 56.7257 21.5805 56.5757 21.4513 56.45C21.322 56.3242 21.1692 56.2251 21.0015 56.1583Z" fill="#001B13"/>
<path d="M13.6033 38.8835C13.4229 38.8778 13.2431 38.9078 13.0742 38.9715C12.9053 39.0352 12.7507 39.1315 12.6192 39.255C12.4876 39.3784 12.3816 39.5264 12.3074 39.6907C12.2332 39.8549 12.1921 40.0322 12.1866 40.2123C12.1809 40.3924 12.2109 40.5719 12.2747 40.7404C12.3386 40.9089 12.4352 41.0633 12.5588 41.1946C12.6825 41.3259 12.8308 41.4316 12.9954 41.5057C13.1599 41.5797 13.3376 41.6207 13.518 41.6263L16.5995 41.7208C16.9637 41.7322 17.3175 41.5988 17.5832 41.3499C17.8489 41.101 18.0046 40.7571 18.0163 40.3936C18.0219 40.2135 17.992 40.034 17.9281 39.8655C17.8642 39.6969 17.7677 39.5426 17.644 39.4113C17.5204 39.28 17.3721 39.1743 17.2075 39.1002C17.0429 39.0262 16.8653 38.9852 16.6848 38.9796L13.6033 38.8835Z" fill="#001B13"/>
<path d="M16.001 21.951C15.6378 21.9812 15.3014 22.1541 15.0659 22.4318C14.8308 22.7096 14.7159 23.0692 14.7464 23.4316C14.7769 23.794 14.9504 24.1295 15.2286 24.3643L18.9245 27.4838C19.2029 27.7185 19.5632 27.8332 19.9263 27.8028C20.2895 27.7723 20.6256 27.5992 20.8609 27.3215C21.0962 27.0438 21.2114 26.6843 21.1812 26.3219C21.151 25.9595 20.9778 25.6239 20.6998 25.3889L17.0039 22.2694C16.8659 22.1532 16.7062 22.0652 16.5341 22.0106C16.362 21.956 16.1809 21.9357 16.001 21.951Z" fill="#001B13"/>
<path d="M28.8939 13.2483C28.6024 13.4665 28.4097 13.7914 28.3582 14.1514C28.3066 14.5115 28.4005 14.8772 28.6191 15.1682L30.3486 17.4712C30.4569 17.6154 30.5927 17.737 30.7481 17.8288C30.9035 17.9207 31.0754 17.9811 31.2542 18.0066C31.433 18.032 31.6152 18.0221 31.7902 17.9773C31.9651 17.9325 32.1295 17.8537 32.2739 17.7455C32.5654 17.5272 32.758 17.2023 32.8095 16.8423C32.8611 16.4823 32.7673 16.1165 32.5487 15.8255L30.8176 13.5225C30.5989 13.2316 30.2735 13.0393 29.9127 12.9879C29.552 12.9365 29.1855 13.0301 28.8939 13.2483Z" fill="#001B13"/>
<path d="M127.403 66.3695C126.925 66.4524 126.45 66.631 126.004 66.885C124.217 67.901 122.399 70.0184 119.83 73.8948C114.755 81.5511 80.0272 134.866 72.4561 147.225C64.996 159.389 62.7132 159.832 56.0253 165.768C52.5381 168.86 50.5955 172.193 48.4077 174.44C46.2198 176.687 43.9716 178.031 39.0574 177.687C33.6892 177.311 30.5607 178.007 28.1531 179.783C25.7455 181.56 24.2172 184.065 21.2652 187.28C18.0571 190.77 13.9624 197.174 10.5772 202.783C7.19191 208.392 4.56743 213.173 4.56743 213.173C4.39243 213.492 4.35152 213.867 4.45371 214.216C4.5559 214.565 4.79278 214.859 5.11233 215.034C5.27067 215.121 5.44462 215.176 5.62417 215.195C5.80371 215.215 5.98532 215.199 6.1587 215.149C6.33209 215.098 6.49382 215.014 6.63461 214.901C6.7754 214.788 6.89249 214.649 6.97922 214.49C6.97922 214.49 9.57911 209.755 12.9321 204.199C16.2851 198.643 20.4427 192.233 23.2916 189.134C26.3884 185.761 27.9782 183.324 29.7878 181.989C31.5973 180.653 33.785 180.069 38.8648 180.425C44.4066 180.813 47.8441 178.955 50.3788 176.352C52.9136 173.749 54.7314 170.585 57.8511 167.819C57.8511 167.819 57.8511 167.818 57.8511 167.818C64.3597 162.04 67.2208 161.018 74.8015 148.657C74.8015 148.657 74.8015 148.656 74.8015 148.656C82.2554 136.488 117.105 82.9795 122.123 75.408C124.6 71.6706 126.421 69.8058 127.363 69.2699C127.835 69.0019 127.964 69.0457 128.028 69.0649C128.093 69.0842 128.269 69.1821 128.518 69.5552C129.951 71.7032 132.08 74.7158 135.864 75.4143C138.917 75.9786 141.621 76.6585 144.028 81.6865C144.028 81.687 144.028 81.6875 144.028 81.6881C145.406 84.5564 148.421 89.3514 151.129 93.5245C153.838 97.6977 156.22 101.193 156.22 101.193C156.425 101.494 156.741 101.701 157.099 101.769C157.457 101.837 157.828 101.76 158.129 101.556C158.278 101.455 158.406 101.325 158.505 101.174C158.604 101.024 158.672 100.855 158.706 100.678C158.74 100.501 158.739 100.319 158.702 100.143C158.665 99.9665 158.594 99.799 158.492 99.6501C158.492 99.6501 156.124 96.177 153.435 92.0334C150.746 87.8904 147.718 83.0227 146.508 80.5027L146.508 80.5011C143.755 74.7533 139.651 73.3247 136.365 72.7173C133.809 72.2455 132.186 70.1038 130.805 68.034C130.35 67.3532 129.721 66.7056 128.813 66.4357C128.36 66.3007 127.88 66.2867 127.403 66.3695Z" fill="#001B13"/>
<path d="M88.5175 118.438L29.6695 120.501C29.3053 120.514 28.9611 120.671 28.7126 120.937C28.4642 121.203 28.3316 121.557 28.3443 121.92C28.3572 122.284 28.5142 122.627 28.7808 122.875C29.0473 123.123 29.4016 123.255 29.7658 123.243L88.6138 121.181C88.978 121.168 89.3223 121.011 89.5708 120.745C89.8192 120.479 89.9517 120.126 89.939 119.762C89.9328 119.582 89.8911 119.405 89.8164 119.241C89.7416 119.077 89.6351 118.929 89.503 118.806C89.371 118.683 89.2161 118.587 89.047 118.524C88.8779 118.461 88.6979 118.432 88.5175 118.438Z" fill="#001B13"/>
<path d="M24.4477 112.935C24.318 112.81 24.1648 112.711 23.9969 112.645C23.829 112.579 23.6496 112.546 23.4691 112.549C23.2885 112.552 23.1103 112.59 22.9446 112.662C22.7789 112.734 22.629 112.837 22.5035 112.967C22.1884 113.292 22.0305 113.36 21.8164 113.411C21.6023 113.462 21.258 113.467 20.7045 113.399C19.5974 113.263 17.7933 112.875 15.1449 112.97C12.0138 113.083 9.80489 115.279 8.65343 117.393C8.07765 118.45 7.72977 119.5 7.6726 120.502C7.6443 121.002 7.67259 121.506 7.91899 122.034C8.16216 122.561 8.75919 123.103 9.42893 123.222C10.1903 123.359 11.2128 123.369 12.6367 123.385C14.0607 123.401 15.7661 123.39 17.4129 123.369C20.7066 123.327 23.7638 123.243 23.7638 123.243C23.9443 123.238 24.122 123.198 24.2868 123.124C24.4516 123.051 24.6003 122.945 24.7244 122.815C24.8485 122.684 24.9456 122.53 25.01 122.361C25.0745 122.193 25.105 122.014 25.1 121.834C25.0951 121.654 25.0546 121.476 24.981 121.312C24.9073 121.147 24.8019 120.999 24.6708 120.875C24.5397 120.751 24.3855 120.654 24.2168 120.59C24.0482 120.526 23.8685 120.495 23.688 120.5C23.688 120.5 20.6469 120.583 17.3782 120.625C15.7439 120.645 14.0524 120.656 12.6668 120.64C11.553 120.628 10.8884 120.581 10.454 120.546C10.4968 120.117 10.6773 119.423 11.0684 118.705C11.8981 117.182 13.386 115.778 15.2444 115.711C17.5855 115.627 19.0265 115.958 20.3696 116.123C21.0412 116.205 21.7235 116.254 22.4545 116.08C23.1854 115.906 23.8927 115.48 24.4793 114.876C24.605 114.746 24.7039 114.594 24.7703 114.426C24.8368 114.258 24.8694 114.079 24.8665 113.899C24.8635 113.719 24.8251 113.541 24.7532 113.376C24.6814 113.21 24.5775 113.061 24.4477 112.935Z" fill="#001B13"/>
<path d="M103.38 81.9972C99.7597 81.861 95.1369 82.6332 89.5425 84.9449C83.6836 87.37 79.3164 92.536 76.3464 97.0415C74.5983 99.6934 73.4966 101.832 72.75 103.407C69.4287 99.252 66.0359 96.2477 62.1789 94.6597C57.7692 92.8442 52.8556 92.8751 47.1853 94.6172C41.4685 96.3719 38.2096 99.1753 36.1925 101.595C35.1839 102.806 34.4751 103.915 33.9244 104.691C33.3742 105.467 32.961 105.785 32.961 105.785C28.0354 107.465 25.6387 112.202 25.6387 112.202C25.5545 112.362 25.5026 112.536 25.486 112.716C25.4694 112.895 25.4885 113.076 25.542 113.249C25.5956 113.421 25.6826 113.581 25.7981 113.719C25.9136 113.858 26.0554 113.972 26.2152 114.056C26.5378 114.225 26.9145 114.26 27.2625 114.152C27.6105 114.044 27.9014 113.803 28.0711 113.481C28.0711 113.481 30.2038 109.625 33.8502 108.382C34.9903 107.992 35.5525 107.141 36.1657 106.277C36.7788 105.413 37.4195 104.411 38.3042 103.35C40.0736 101.227 42.7681 98.8437 47.9924 97.2402C53.2554 95.6232 57.3824 95.653 61.1301 97.196C64.8779 98.7391 68.3423 101.888 71.9603 106.815C72.1053 107.012 72.3006 107.167 72.5259 107.264C72.7512 107.361 72.9983 107.396 73.2416 107.365C73.4849 107.334 73.7156 107.239 73.9097 107.089C74.1038 106.94 74.2541 106.741 74.3452 106.514C74.3452 106.514 75.8293 102.814 78.6413 98.5485C81.453 94.2831 85.5838 89.5535 90.5928 87.4797C101.173 83.1075 107.575 85.0504 109.445 86.6064C109.725 86.8391 110.086 86.9513 110.449 86.9185C110.811 86.8857 111.146 86.7105 111.38 86.4314C111.495 86.293 111.583 86.1333 111.637 85.9613C111.69 85.7893 111.71 85.6083 111.693 85.4289C111.677 85.2494 111.625 85.0749 111.542 84.9153C111.458 84.7558 111.343 84.6142 111.204 84.4989C109.616 83.1776 106.998 82.1335 103.378 81.9973L103.38 81.9972Z" fill="#001B13"/>
<path d="M126.94 103.449C126.763 103.417 126.58 103.42 126.404 103.458C126.228 103.496 126.06 103.569 125.912 103.672C125.613 103.878 125.408 104.195 125.342 104.553C125.277 104.911 125.356 105.28 125.563 105.579L127.39 108.218C127.493 108.366 127.624 108.493 127.775 108.591C127.927 108.689 128.096 108.756 128.274 108.788C128.452 108.821 128.634 108.818 128.811 108.78C128.987 108.742 129.155 108.67 129.303 108.568C129.452 108.465 129.578 108.334 129.676 108.183C129.774 108.032 129.841 107.863 129.874 107.685C129.906 107.508 129.903 107.326 129.865 107.15C129.827 106.974 129.755 106.807 129.652 106.659L127.825 104.02C127.722 103.871 127.591 103.745 127.44 103.647C127.288 103.549 127.118 103.482 126.94 103.449Z" fill="#001B13"/>
<path d="M134.427 117.956C134.251 117.913 134.069 117.905 133.89 117.933C133.712 117.96 133.54 118.023 133.386 118.117C133.232 118.21 133.098 118.333 132.991 118.479C132.884 118.624 132.808 118.789 132.765 118.964C132.722 119.139 132.715 119.321 132.742 119.499C132.77 119.677 132.833 119.848 132.926 120.002L139.8 131.277C139.894 131.431 140.017 131.565 140.163 131.672C140.309 131.778 140.474 131.855 140.649 131.897C140.825 131.94 141.007 131.948 141.185 131.92C141.364 131.892 141.535 131.83 141.689 131.736C142 131.547 142.223 131.242 142.309 130.889C142.396 130.536 142.338 130.163 142.149 129.852L135.275 118.577C135.086 118.266 134.781 118.043 134.427 117.956Z" fill="#001B13"/>
<path d="M126.083 127.559C125.908 127.513 125.726 127.502 125.547 127.526C125.368 127.551 125.196 127.61 125.04 127.701C124.884 127.791 124.748 127.912 124.638 128.055C124.529 128.198 124.449 128.362 124.403 128.536C124.357 128.71 124.346 128.892 124.37 129.07C124.394 129.249 124.453 129.421 124.544 129.576L126.419 132.791C126.51 132.946 126.631 133.083 126.774 133.192C126.918 133.301 127.082 133.381 127.256 133.427C127.431 133.473 127.613 133.484 127.791 133.46C127.97 133.435 128.143 133.376 128.299 133.286C128.455 133.195 128.591 133.074 128.701 132.931C128.81 132.788 128.89 132.624 128.936 132.45C128.982 132.276 128.993 132.094 128.969 131.916C128.945 131.737 128.885 131.565 128.795 131.41L126.92 128.196C126.829 128.04 126.708 127.903 126.565 127.794C126.421 127.685 126.257 127.605 126.083 127.559Z" fill="#001B13"/>
<path d="M131.178 85.5565C130.862 85.7375 130.631 86.0362 130.535 86.387C130.44 86.7378 130.488 87.1121 130.669 87.4276C139.345 102.524 147.183 118.146 154.264 134.245C154.411 134.578 154.684 134.84 155.023 134.972C155.363 135.104 155.741 135.096 156.074 134.95C156.408 134.804 156.669 134.531 156.802 134.193C156.934 133.854 156.927 133.477 156.78 133.144C149.662 116.96 141.78 101.25 133.053 86.0641C132.871 85.7488 132.572 85.5183 132.22 85.4231C131.869 85.3279 131.494 85.3759 131.178 85.5565Z" fill="#001B13"/>
<path d="M19.3367 271.985C13.3524 272.254 8.92217 273.745 5.204 275.677C5.04385 275.76 4.90169 275.874 4.78565 276.012C4.6696 276.15 4.58197 276.309 4.52771 276.481C4.47344 276.653 4.45359 276.834 4.46937 277.013C4.48514 277.193 4.53619 277.367 4.61961 277.527C4.78795 277.85 5.07764 278.092 5.42502 278.201C5.7724 278.311 6.14907 278.278 6.47228 278.11C9.91891 276.32 13.8657 274.976 19.4615 274.724C19.8255 274.708 20.168 274.548 20.4138 274.28C20.6596 274.011 20.7886 273.656 20.7724 273.293C20.7643 273.113 20.7207 272.937 20.6441 272.773C20.5675 272.61 20.4595 272.464 20.3262 272.342C20.1928 272.221 20.0368 272.127 19.867 272.065C19.6973 272.004 19.5171 271.977 19.3367 271.985Z" fill="#001B13"/>
<path d="M30.5776 270.572L27.6509 270.687C27.2867 270.701 26.943 270.859 26.6953 271.126C26.4477 271.393 26.3165 271.747 26.3305 272.111C26.3374 272.291 26.3799 272.468 26.4555 272.632C26.531 272.795 26.6381 272.943 26.7707 273.065C26.9034 273.187 27.0588 273.283 27.2283 273.345C27.3978 273.407 27.5778 273.436 27.7583 273.429L30.685 273.314C31.0492 273.3 31.3929 273.142 31.6405 272.875C31.8881 272.608 32.0194 272.254 32.0054 271.89C31.9984 271.71 31.9559 271.533 31.8804 271.369C31.8049 271.206 31.6977 271.058 31.5651 270.936C31.4325 270.814 31.2771 270.718 31.1077 270.656C30.9382 270.594 30.758 270.565 30.5776 270.572Z" fill="#001B13"/>
<path d="M180.856 264.869C131.894 265.848 83.2936 267.081 38.0545 270.576C37.8745 270.589 37.6989 270.638 37.5378 270.72C37.3768 270.802 37.2334 270.914 37.1159 271.051C36.9984 271.188 36.9092 271.346 36.8532 271.518C36.7971 271.689 36.7754 271.87 36.7894 272.049C36.8177 272.412 36.9892 272.749 37.2662 272.985C37.5431 273.222 37.9028 273.339 38.2662 273.311C83.4038 269.824 131.957 268.591 180.909 267.612C181.274 267.605 181.62 267.454 181.873 267.192C182.126 266.929 182.264 266.578 182.257 266.214C182.249 265.85 182.098 265.504 181.835 265.252C181.572 265 181.22 264.862 180.856 264.869Z" fill="#001B13"/>
<path d="M95.5522 271.302C94.2037 271.801 93.1384 272.294 92.3049 272.816C91.4713 273.337 90.8207 273.861 90.4553 274.695C90.09 275.528 90.3826 276.703 90.9908 277.303C91.5991 277.904 92.3481 278.219 93.2588 278.487C96.9018 279.56 103.633 279.6 112.815 278.251C112.994 278.225 113.166 278.163 113.321 278.071C113.475 277.979 113.611 277.856 113.718 277.712C113.826 277.567 113.904 277.403 113.948 277.228C113.992 277.053 114.001 276.872 113.975 276.693C113.948 276.515 113.887 276.344 113.794 276.189C113.702 276.035 113.579 275.9 113.434 275.792C113.29 275.685 113.125 275.607 112.95 275.563C112.775 275.519 112.593 275.51 112.414 275.536C103.45 276.854 96.7289 276.648 94.0359 275.855C93.5911 275.724 93.4823 275.628 93.3015 275.524C93.419 275.402 93.4177 275.358 93.7643 275.141C94.3559 274.771 95.275 274.33 96.5061 273.875C96.8479 273.749 97.1255 273.492 97.2777 273.162C97.4299 272.831 97.4444 272.454 97.318 272.113C97.1914 271.772 96.9342 271.495 96.6031 271.343C96.2719 271.191 95.894 271.176 95.5522 271.302Z" fill="#001B13"/>
<path d="M100.298 271.827C99.4671 271.892 98.9401 272.02 98.9401 272.02C98.7644 272.061 98.5987 272.136 98.4522 272.242C98.3058 272.347 98.1815 272.48 98.0866 272.634C97.9917 272.787 97.9279 272.957 97.8991 273.135C97.8702 273.313 97.8767 273.495 97.9182 273.67C98.002 274.024 98.223 274.33 98.5328 274.521C98.8426 274.712 99.2157 274.773 99.5703 274.69C99.5703 274.69 101.154 274.334 102.933 274.699C103.11 274.736 103.292 274.737 103.469 274.703C103.647 274.669 103.815 274.601 103.966 274.501C104.117 274.402 104.247 274.275 104.348 274.125C104.449 273.976 104.52 273.809 104.557 273.632C104.593 273.456 104.594 273.274 104.56 273.097C104.526 272.92 104.458 272.751 104.358 272.601C104.259 272.45 104.131 272.321 103.981 272.22C103.832 272.119 103.664 272.048 103.487 272.012C102.266 271.761 101.13 271.762 100.298 271.827Z" fill="#001B13"/>
<path d="M111.233 271.51C109.684 271.604 108.785 271.837 108.785 271.837C108.432 271.93 108.132 272.159 107.949 272.474C107.766 272.788 107.715 273.162 107.809 273.514C107.855 273.688 107.935 273.852 108.045 273.995C108.154 274.138 108.291 274.258 108.447 274.349C108.604 274.439 108.776 274.498 108.955 274.522C109.134 274.546 109.316 274.534 109.491 274.488C109.491 274.488 112.347 273.706 117.003 274.696C117.359 274.772 117.73 274.703 118.036 274.505C118.342 274.308 118.556 273.997 118.632 273.642C118.67 273.465 118.673 273.284 118.64 273.106C118.608 272.929 118.54 272.76 118.442 272.609C118.344 272.458 118.217 272.327 118.068 272.225C117.92 272.123 117.752 272.051 117.576 272.013C114.979 271.461 112.781 271.417 111.233 271.51Z" fill="#001B13"/>
<path d="M163.074 282.669C162.722 282.575 162.347 282.625 162.032 282.807C161.717 282.989 161.486 283.289 161.392 283.64C161.298 283.992 161.348 284.366 161.53 284.681C161.713 284.995 162.013 285.225 162.365 285.319C162.365 285.319 166.245 286.396 170.245 285.715C170.423 285.684 170.593 285.62 170.746 285.524C170.899 285.428 171.031 285.303 171.136 285.156C171.24 285.009 171.315 284.843 171.355 284.667C171.395 284.491 171.4 284.31 171.37 284.132C171.339 283.954 171.274 283.784 171.178 283.631C171.082 283.479 170.956 283.347 170.809 283.242C170.662 283.138 170.495 283.064 170.319 283.024C170.143 282.984 169.96 282.979 169.782 283.01C166.568 283.557 163.074 282.669 163.074 282.669Z" fill="#001B13"/>
<path d="M178.403 276.823C176.393 276.917 174.837 277.312 173.511 277.801C170.86 278.78 169.398 279.872 166.386 279.829C166.022 279.823 165.67 279.962 165.409 280.216C165.147 280.469 164.997 280.816 164.992 281.179C164.989 281.36 165.022 281.539 165.089 281.706C165.155 281.874 165.254 282.026 165.38 282.156C165.506 282.285 165.656 282.388 165.822 282.46C165.988 282.531 166.166 282.569 166.347 282.571C170.055 282.625 172.172 281.222 174.464 280.376C176.755 279.53 179.488 278.977 185.396 280.325C185.752 280.406 186.124 280.343 186.433 280.15C186.742 279.956 186.961 279.649 187.042 279.294C187.082 279.119 187.087 278.937 187.057 278.759C187.027 278.582 186.962 278.412 186.866 278.259C186.77 278.107 186.644 277.974 186.497 277.87C186.35 277.766 186.184 277.692 186.008 277.652C182.872 276.936 180.412 276.728 178.403 276.823Z" fill="#001B13"/>
<path d="M177.256 281.64C176.892 281.636 176.541 281.778 176.281 282.033C176.021 282.287 175.873 282.635 175.87 282.998C175.866 283.362 176.008 283.712 176.263 283.972C176.519 284.231 176.867 284.379 177.231 284.382L188.311 284.482C188.491 284.483 188.67 284.45 188.838 284.382C189.005 284.315 189.158 284.215 189.287 284.088C189.415 283.962 189.518 283.812 189.588 283.646C189.659 283.48 189.696 283.302 189.697 283.121C189.699 282.941 189.665 282.762 189.598 282.595C189.53 282.428 189.43 282.276 189.303 282.148C189.177 282.019 189.026 281.917 188.86 281.846C188.694 281.776 188.515 281.739 188.334 281.737L177.256 281.64Z" fill="#001B13"/>
<path d="M200.578 280.188C200.397 280.186 200.218 280.22 200.051 280.288C199.883 280.355 199.731 280.455 199.602 280.581C199.473 280.708 199.371 280.858 199.3 281.024C199.23 281.19 199.193 281.368 199.191 281.548C199.188 281.912 199.33 282.262 199.585 282.522C199.84 282.781 200.188 282.929 200.553 282.932L204.782 282.97C205.147 282.974 205.498 282.832 205.758 282.577C206.018 282.323 206.166 281.975 206.169 281.611C206.172 281.248 206.031 280.898 205.775 280.638C205.52 280.379 205.172 280.231 204.808 280.227L200.578 280.188Z" fill="#001B13"/>
<path d="M204.741 272.36L198.894 272.59C198.53 272.604 198.186 272.762 197.939 273.029C197.691 273.296 197.56 273.65 197.574 274.014C197.581 274.194 197.623 274.371 197.699 274.535C197.775 274.698 197.882 274.846 198.014 274.968C198.147 275.09 198.302 275.185 198.472 275.248C198.641 275.31 198.821 275.339 199.002 275.331L204.849 275.101C205.213 275.087 205.557 274.929 205.804 274.661C206.051 274.394 206.182 274.04 206.168 273.676C206.153 273.313 205.995 272.97 205.727 272.724C205.46 272.477 205.105 272.346 204.741 272.36Z" fill="#001B13"/>
<path d="M203.093 266.113C200.764 266.22 198.838 266.375 198.838 266.375C198.474 266.404 198.138 266.576 197.902 266.853C197.666 267.13 197.55 267.489 197.579 267.852C197.593 268.031 197.643 268.206 197.725 268.367C197.807 268.527 197.92 268.67 198.058 268.786C198.195 268.903 198.354 268.992 198.526 269.047C198.698 269.103 198.879 269.124 199.059 269.109C199.059 269.109 200.942 268.957 203.219 268.853C205.495 268.748 208.21 268.707 209.587 268.873C209.949 268.917 210.313 268.815 210.6 268.591C210.886 268.366 211.072 268.038 211.116 267.677C211.138 267.498 211.124 267.316 211.076 267.143C211.027 266.969 210.945 266.807 210.834 266.665C210.722 266.523 210.584 266.405 210.427 266.316C210.27 266.228 210.096 266.171 209.917 266.149C208.108 265.931 205.422 266.006 203.093 266.113Z" fill="#001B13"/>
<path d="M294.549 270.234C294.369 270.226 294.189 270.254 294.019 270.316C293.85 270.378 293.694 270.472 293.561 270.594C293.429 270.716 293.321 270.863 293.245 271.027C293.169 271.19 293.126 271.367 293.118 271.547C293.111 271.727 293.139 271.907 293.201 272.076C293.263 272.245 293.358 272.401 293.48 272.533C293.603 272.666 293.75 272.773 293.914 272.849C294.078 272.925 294.255 272.967 294.436 272.975C294.436 272.975 326.748 274.328 336.229 275.325C336.409 275.344 336.59 275.327 336.763 275.276C336.937 275.225 337.098 275.14 337.238 275.027C337.379 274.914 337.495 274.774 337.582 274.615C337.668 274.457 337.722 274.283 337.74 274.103C337.759 273.924 337.742 273.743 337.691 273.571C337.64 273.398 337.555 273.237 337.441 273.097C337.327 272.957 337.187 272.841 337.029 272.755C336.87 272.669 336.696 272.615 336.516 272.597C326.654 271.56 294.549 270.234 294.549 270.234Z" fill="#001B13"/>
<path d="M345.551 273.698C345.187 273.675 344.829 273.797 344.556 274.037C344.282 274.277 344.115 274.616 344.091 274.978C344.08 275.158 344.103 275.338 344.162 275.509C344.22 275.68 344.311 275.837 344.43 275.972C344.549 276.108 344.694 276.219 344.856 276.298C345.017 276.378 345.194 276.425 345.374 276.436C345.374 276.436 346.881 276.532 348.577 276.624C350.273 276.716 352.086 276.807 353.002 276.783C353.367 276.774 353.712 276.62 353.963 276.356C354.214 276.093 354.349 275.741 354.34 275.377C354.336 275.197 354.296 275.02 354.222 274.855C354.149 274.69 354.044 274.542 353.913 274.418C353.782 274.293 353.628 274.196 353.46 274.132C353.291 274.067 353.112 274.036 352.931 274.04C352.344 274.056 350.405 273.975 348.725 273.884C347.045 273.794 345.551 273.698 345.551 273.698Z" fill="#001B13"/>
<path d="M324.623 160.835C323.014 160.493 321.507 160.962 320.443 161.801C318.314 163.48 317.335 166.188 316.006 167.911C314.466 169.906 310.678 175.069 306.738 179.856C304.768 182.25 302.762 184.544 301.025 186.259C299.288 187.974 297.623 189.044 297.28 189.117C294.946 189.609 293.469 190.452 292.221 190.887C290.973 191.322 289.915 191.507 287.658 190.876L287.658 190.877C285.809 190.36 282.222 187.636 279.403 185.036C276.583 182.435 274.363 179.999 274.363 179.999C274.118 179.73 273.775 179.569 273.411 179.552C273.047 179.534 272.691 179.662 272.422 179.906C272.288 180.028 272.179 180.174 272.102 180.337C272.025 180.5 271.981 180.676 271.972 180.857C271.964 181.037 271.991 181.217 272.052 181.386C272.113 181.556 272.207 181.712 272.328 181.845C272.328 181.845 274.617 184.358 277.537 187.05C280.457 189.743 283.84 192.656 286.916 193.518C289.592 194.266 291.538 194.033 293.128 193.478C294.718 192.924 295.914 192.209 297.849 191.801L297.849 191.8C299.637 191.422 301.102 190.041 302.957 188.21C304.811 186.379 306.857 184.032 308.861 181.598C312.868 176.729 316.714 171.488 318.182 169.585C319.861 167.409 320.984 164.87 322.145 163.954C322.725 163.496 323.16 163.33 324.05 163.519C324.94 163.708 326.31 164.41 328.152 166.005C335.863 172.691 342.635 179.266 342.635 179.266C342.896 179.52 343.248 179.659 343.612 179.654C343.976 179.649 344.324 179.5 344.578 179.24C344.832 178.979 344.972 178.628 344.967 178.265C344.962 177.901 344.812 177.554 344.551 177.301C344.551 177.301 337.737 170.682 329.954 163.934L329.954 163.932C327.918 162.168 326.231 161.176 324.622 160.835L324.623 160.835Z" fill="#001B13"/>
<path d="M331.9 128.04C331.005 128.086 330.106 128.225 329.215 128.472C326.068 129.342 323.132 131.641 320.79 135.406C318.644 133.627 315.903 132.825 313.28 133.366C310.4 133.96 307.88 136.265 306.684 139.939C304.765 139.622 302.806 139.689 301.148 140.442C299.11 141.368 297.521 143.462 297.887 146.022C297.933 146.349 298.096 146.647 298.345 146.864C298.594 147.081 298.913 147.2 299.243 147.201L347.124 147.345C347.41 147.346 347.689 147.258 347.923 147.093C348.157 146.928 348.333 146.694 348.427 146.424C349.511 143.309 348.795 139.925 347.108 136.988C345.421 134.052 342.749 131.485 339.601 129.843C337.239 128.611 334.584 127.902 331.9 128.04ZM332.05 130.779C334.171 130.672 336.33 131.233 338.328 132.275C340.992 133.665 343.321 135.913 344.723 138.353C345.934 140.461 346.388 142.641 346.018 144.599L300.809 144.462C301.034 143.828 301.457 143.316 302.287 142.939C303.573 142.355 305.533 142.233 307.218 142.731C307.399 142.785 307.59 142.8 307.777 142.777C307.965 142.754 308.146 142.693 308.308 142.597C308.471 142.501 308.612 142.372 308.723 142.219C308.834 142.066 308.912 141.892 308.952 141.708C309.744 138.099 311.704 136.494 313.837 136.054C315.971 135.613 318.396 136.442 320.013 138.401C320.157 138.576 320.343 138.712 320.554 138.798C320.764 138.884 320.992 138.916 321.218 138.892C321.444 138.868 321.661 138.789 321.848 138.661C322.036 138.533 322.189 138.361 322.294 138.16C324.484 133.93 327.183 131.88 329.949 131.115C330.641 130.924 331.343 130.815 332.05 130.779Z" fill="#001B13"/>
<path d="M347.391 293.749C346.528 293.887 345.655 294.342 345.03 295.091C343.593 296.812 342.007 297.415 338.71 297.925C335.006 298.498 332.308 301.03 331.803 301.517C331.305 301.551 329.257 301.627 329.257 301.627C328.894 301.655 328.557 301.826 328.319 302.102C328.082 302.378 327.965 302.737 327.992 303.1C328.006 303.279 328.055 303.455 328.136 303.616C328.218 303.776 328.33 303.92 328.467 304.037C328.604 304.154 328.763 304.244 328.935 304.3C329.106 304.356 329.287 304.378 329.467 304.364C329.467 304.364 347.131 303.059 357.823 304.946C358.082 304.991 358.348 304.962 358.59 304.861C358.833 304.76 359.041 304.592 359.191 304.377C359.837 303.447 360.163 302.459 359.919 301.516C359.674 300.572 358.942 300.007 358.332 299.711C357.581 299.346 356.941 299.242 356.469 299.198C356.232 298.942 355.573 298.22 353.941 296.585C352.868 295.51 351.454 294.508 349.882 293.998C349.095 293.743 348.254 293.611 347.391 293.749ZM347.825 296.457C348.118 296.41 348.541 296.45 349.032 296.609C350.013 296.926 351.198 297.724 351.993 298.521C353.846 300.377 354.832 301.453 354.832 301.453C354.957 301.59 355.109 301.7 355.279 301.776C355.448 301.853 355.631 301.895 355.817 301.899C355.817 301.899 356.285 302.002 356.661 302.078C349.857 301.094 342.874 301.076 337.137 301.284C337.788 300.984 338.466 300.739 339.13 300.636C342.659 300.09 345.214 299.155 347.141 296.847C347.357 296.588 347.532 296.504 347.825 296.457Z" fill="#001B13"/>
<path d="M8.00277 287.19C3.78103 287.768 0.636304 289.83 0.636304 289.83C0.32892 290.026 0.111845 290.335 0.0327644 290.69C-0.0463166 291.045 0.0190817 291.416 0.214596 291.723C0.410036 292.03 0.719662 292.247 1.07539 292.327C1.43111 292.406 1.80381 292.341 2.11149 292.146C2.11149 292.146 7.09851 289.095 12.043 289.941C16.946 290.78 21.0725 295.619 22.9742 298C22.9742 298.001 22.9742 298.002 22.9742 298.003C24.2416 299.583 26.1578 300.102 28.1674 300.163C30.1769 300.224 32.4708 299.936 35.2606 299.796C46.5393 299.227 62.4777 301.112 72.1671 304.873C75.2612 306.075 81.3487 307.663 89.1049 307.252C96.2687 306.871 103.309 309.54 112.428 307.953C120.542 306.541 133.302 310.287 140.53 316.591C140.666 316.71 140.823 316.8 140.995 316.858C141.166 316.916 141.346 316.939 141.526 316.927C141.707 316.915 141.883 316.867 142.044 316.787C142.206 316.707 142.35 316.596 142.469 316.46C142.588 316.325 142.679 316.167 142.736 315.996C142.794 315.826 142.818 315.645 142.805 315.465C142.793 315.286 142.746 315.11 142.665 314.949C142.585 314.787 142.474 314.643 142.338 314.525C134.346 307.554 121.294 303.624 111.956 305.25C103.608 306.702 96.8533 304.092 88.9596 304.512C81.6585 304.899 75.8759 303.37 73.1637 302.316C62.8305 298.305 46.8252 296.464 35.1216 297.055C32.2265 297.2 29.9109 297.472 28.2511 297.422C26.5925 297.371 25.7792 297.108 25.1222 296.29L25.1222 296.288C23.1903 293.87 18.8112 288.317 12.5073 287.237C10.9374 286.969 9.41001 286.997 8.00277 287.19Z" fill="#001B13"/>
<path d="M15.7357 314.186C15.3713 314.184 15.021 314.326 14.7619 314.582C14.5027 314.838 14.3558 315.186 14.3537 315.549C14.3525 315.73 14.3868 315.908 14.4549 316.075C14.5229 316.242 14.6232 316.394 14.7501 316.522C14.877 316.651 15.0279 316.753 15.1943 316.823C15.3607 316.893 15.5393 316.929 15.7199 316.93C15.7199 316.93 40.7118 317.081 66.606 317.156C79.5531 317.193 92.7257 317.211 103.116 317.182C113.506 317.154 120.931 317.099 123.015 316.925C123.195 316.911 123.37 316.86 123.531 316.778C123.692 316.695 123.834 316.582 123.951 316.444C124.067 316.307 124.156 316.147 124.211 315.976C124.265 315.804 124.286 315.623 124.271 315.444C124.256 315.264 124.206 315.089 124.123 314.929C124.04 314.769 123.927 314.627 123.789 314.51C123.651 314.394 123.491 314.306 123.319 314.251C123.147 314.196 122.966 314.176 122.786 314.191C121.263 314.317 113.489 314.412 103.108 314.44C92.7274 314.468 79.5582 314.449 66.6139 314.411C40.7251 314.336 15.7357 314.186 15.7357 314.186Z" fill="#001B13"/>
<path d="M128.044 312.156C127.912 312.033 127.757 311.937 127.588 311.874C127.419 311.811 127.239 311.782 127.059 311.788C126.879 311.794 126.701 311.836 126.537 311.911C126.373 311.985 126.225 312.092 126.102 312.223C126.102 312.223 125.699 312.653 125.31 313.269C124.922 313.884 124.468 314.726 124.457 315.819C124.448 316.912 125.159 318.193 126.437 318.849C127.714 319.505 129.461 319.782 132.081 319.731C141.981 319.541 160.715 320.307 160.715 320.307C160.895 320.314 161.075 320.286 161.245 320.224C161.414 320.162 161.57 320.067 161.702 319.945C161.835 319.823 161.943 319.676 162.018 319.512C162.094 319.349 162.137 319.172 162.144 318.992C162.152 318.812 162.123 318.632 162.061 318.463C161.999 318.294 161.904 318.139 161.782 318.007C161.659 317.874 161.512 317.767 161.348 317.691C161.184 317.616 161.007 317.573 160.827 317.566C160.827 317.566 142.136 316.795 132.029 316.989C129.652 317.034 128.281 316.71 127.694 316.409C127.107 316.107 127.205 316.076 127.207 315.844C127.207 315.612 127.391 315.119 127.637 314.73C127.882 314.34 128.111 314.095 128.111 314.095C128.234 313.963 128.33 313.808 128.393 313.64C128.457 313.471 128.486 313.291 128.48 313.111C128.474 312.931 128.432 312.754 128.358 312.59C128.283 312.426 128.176 312.279 128.044 312.156Z" fill="#001B13"/>
<path d="M88.2189 308.971C88.0443 308.926 87.8622 308.914 87.6833 308.939C87.5044 308.963 87.3322 309.023 87.1763 309.114C87.0204 309.204 86.8839 309.325 86.7747 309.469C86.6655 309.612 86.5857 309.776 86.54 309.95C86.4941 310.125 86.4829 310.306 86.5074 310.485C86.5318 310.663 86.5914 310.835 86.6825 310.991C86.7736 311.146 86.8944 311.283 87.0383 311.392C87.1821 311.501 87.3461 311.58 87.5208 311.626C93.4736 313.185 100.763 313.139 107.049 313.415C110.192 313.553 113.079 313.769 115.342 314.249C117.605 314.728 119.158 315.49 119.868 316.4C120.091 316.688 120.42 316.874 120.782 316.92C121.143 316.965 121.508 316.865 121.796 316.642C122.084 316.418 122.271 316.09 122.316 315.729C122.362 315.368 122.261 315.004 122.038 314.717C120.673 312.965 118.47 312.108 115.914 311.566C113.358 311.024 110.362 310.815 107.17 310.675C100.788 310.396 93.6117 310.384 88.2189 308.971Z" fill="#001B13"/>
<path d="M33.5043 309.676C28.2659 310.51 26.4284 315.135 26.4284 315.135C26.2986 315.475 26.3093 315.852 26.4583 316.184C26.6073 316.516 26.8823 316.775 27.2229 316.905C27.5634 317.034 27.9417 317.024 28.2743 316.875C28.6069 316.726 28.8667 316.452 28.9966 316.112C28.9966 316.112 30.1184 312.993 33.937 312.386C35.7697 312.094 37.8965 312.72 40.2847 313.38C42.673 314.041 45.3636 314.714 48.2151 313.888C49.1064 313.629 51.6379 313.344 54.7492 313.204C57.8604 313.064 61.6439 313.024 65.453 313.081C69.262 313.137 73.1012 313.289 76.3242 313.53C79.5471 313.771 82.2133 314.13 83.3985 314.476C83.7482 314.578 84.1241 314.537 84.4436 314.362C84.7632 314.187 85.0003 313.893 85.1027 313.544C85.1534 313.371 85.1695 313.19 85.15 313.011C85.1306 312.832 85.076 312.658 84.9893 312.5C84.9026 312.342 84.7856 312.202 84.6448 312.089C84.5041 311.977 84.3425 311.892 84.1692 311.842C82.4836 311.35 79.828 311.04 76.5295 310.794C73.231 310.547 69.349 310.394 65.494 310.336C61.639 310.279 57.8137 310.319 54.626 310.463C51.4382 310.606 48.9822 310.808 47.4475 311.254C45.4388 311.836 43.3378 311.379 41.0176 310.737C38.6974 310.095 36.1985 309.247 33.5027 309.676L33.5043 309.676Z" fill="#001B13"/>
<path d="M74.2174 307.4C73.108 307.41 71.9137 307.474 70.7679 307.54C68.4763 307.673 66.5019 307.863 66.5019 307.863C66.3221 307.88 66.1476 307.933 65.9882 308.017C65.8287 308.102 65.6874 308.217 65.5726 308.356C65.4577 308.495 65.3714 308.656 65.3187 308.828C65.2659 309 65.2478 309.181 65.2652 309.361C65.3004 309.723 65.4784 310.056 65.7597 310.287C66.0411 310.518 66.4029 310.628 66.7656 310.593C66.7656 310.593 68.6966 310.407 70.9274 310.278C73.1583 310.149 75.8175 310.126 76.6608 310.283C76.8383 310.316 77.0207 310.314 77.1974 310.276C77.3741 310.239 77.5415 310.167 77.6904 310.065C77.8392 309.963 77.9667 309.833 78.0651 309.682C78.1635 309.531 78.231 309.362 78.2639 309.184C78.3302 308.827 78.2514 308.457 78.0449 308.158C77.8385 307.858 77.5214 307.652 77.163 307.586C76.3515 307.435 75.3269 307.39 74.2174 307.4Z" fill="#001B13"/>
<path d="M59.6249 303.927C59.2608 303.916 58.907 304.049 58.6413 304.298C58.3757 304.547 58.2198 304.891 58.2082 305.254C58.2025 305.435 58.2326 305.614 58.2964 305.783C58.3603 305.951 58.4567 306.105 58.5803 306.237C58.704 306.368 58.8525 306.474 59.0171 306.548C59.1816 306.622 59.3592 306.663 59.5396 306.668L67.9738 306.932C68.1543 306.937 68.334 306.907 68.5029 306.844C68.6718 306.78 68.8264 306.684 68.958 306.56C69.0896 306.437 69.1955 306.289 69.2697 306.124C69.3439 305.96 69.385 305.783 69.3906 305.603C69.3962 305.423 69.3662 305.243 69.3023 305.075C69.2384 304.906 69.1421 304.752 69.0184 304.621C68.8948 304.489 68.7463 304.384 68.5817 304.309C68.4171 304.235 68.2396 304.194 68.0591 304.189L59.6249 303.927Z" fill="#001B13"/>
<path d="M9.46859 294.953C8.41069 294.963 7.54958 295.012 7.54958 295.012C7.18584 295.032 6.84497 295.195 6.60183 295.466C6.35868 295.736 6.23315 296.092 6.25287 296.456C6.2628 296.635 6.30817 296.812 6.38633 296.974C6.4645 297.136 6.57394 297.282 6.70844 297.402C6.84293 297.522 6.99978 297.615 7.17012 297.674C7.34047 297.734 7.52096 297.76 7.70121 297.75C7.70121 297.75 8.50539 297.706 9.49544 297.696C10.4855 297.687 11.698 297.733 12.231 297.833C12.5889 297.9 12.9589 297.823 13.2598 297.618C13.5607 297.414 13.7678 297.098 13.8357 296.741C13.9036 296.383 13.8264 296.014 13.6211 295.713C13.4158 295.412 13.0993 295.205 12.7412 295.138C11.7458 294.95 10.5265 294.943 9.46859 294.953Z" fill="#001B13"/>
<path d="M24.0008 296.254C23.036 296.391 20.0648 296.639 20.0648 296.639C19.8849 296.653 19.7096 296.703 19.549 296.785C19.3883 296.867 19.2454 296.98 19.1285 297.118C19.0116 297.255 18.9231 297.414 18.8677 297.585C18.8124 297.757 18.7914 297.938 18.806 298.117C18.8206 298.297 18.8706 298.472 18.9529 298.632C19.0353 298.792 19.1485 298.935 19.2861 299.052C19.4237 299.168 19.5828 299.257 19.7547 299.312C19.9265 299.367 20.1076 299.388 20.2875 299.373C20.2875 299.373 23.1368 299.148 24.3877 298.97C24.7486 298.919 25.0744 298.726 25.2933 298.436C25.5121 298.145 25.6062 297.779 25.5549 297.419C25.5036 297.059 25.3111 296.734 25.0196 296.515C24.7282 296.297 24.3617 296.203 24.0008 296.254Z" fill="#001B13"/>
<path d="M12.3242 290.882C12.1524 290.826 11.9713 290.806 11.7914 290.82C11.6114 290.835 11.4363 290.885 11.2757 290.967C11.1151 291.049 10.9723 291.162 10.8554 291.3C10.7386 291.437 10.65 291.596 10.5947 291.767C10.5394 291.939 10.5186 292.12 10.5332 292.299C10.5479 292.479 10.5979 292.654 10.6803 292.814C10.7627 292.974 10.876 293.117 11.0136 293.233C11.1512 293.35 11.3105 293.438 11.4824 293.494C11.4824 293.494 13.2271 294.054 15.2651 294.589C17.3032 295.124 19.446 295.703 21.1438 295.546C21.3235 295.529 21.4982 295.477 21.6579 295.393C21.8175 295.309 21.959 295.195 22.0742 295.056C22.1895 294.917 22.2763 294.758 22.3296 294.585C22.383 294.413 22.4019 294.232 22.3852 294.053C22.3685 293.874 22.3166 293.699 22.2324 293.54C22.1482 293.381 22.0333 293.24 21.8944 293.124C21.7555 293.009 21.5953 292.923 21.4228 292.87C21.2504 292.816 21.0692 292.797 20.8895 292.814C20.3311 292.866 17.9179 292.449 15.9632 291.936C14.0085 291.423 12.3242 290.882 12.3242 290.882Z" fill="#001B13"/>
<path d="M192.199 95.7899C188.709 95.8508 186.636 96.6884 186.636 96.6884C186.463 96.7605 186.307 96.8672 186.177 97.0018C186.047 97.1365 185.946 97.2962 185.88 97.4713C185.814 97.6464 185.784 97.8332 185.793 98.02C185.802 98.2069 185.849 98.3899 185.932 98.5579C192.368 111.662 185.913 126.101 185.913 126.101C185.763 126.432 185.751 126.809 185.88 127.149C186.008 127.49 186.267 127.765 186.599 127.915C186.763 127.989 186.941 128.031 187.121 128.037C187.302 128.042 187.482 128.013 187.65 127.949C187.819 127.886 187.974 127.79 188.106 127.666C188.238 127.543 188.344 127.395 188.418 127.231C188.418 127.231 194.882 112.887 188.982 98.8984C190.164 98.5888 192.144 98.2363 195.739 98.7612C200.963 99.5241 208.463 102.333 217.358 110.817C217.622 111.068 217.974 111.204 218.339 111.196C218.703 111.188 219.049 111.036 219.301 110.773C219.553 110.51 219.69 110.158 219.682 109.794C219.673 109.431 219.521 109.085 219.258 108.834C210.022 100.025 201.951 96.8959 196.137 96.0468C194.683 95.8346 193.362 95.7696 192.199 95.7899Z" fill="#001B13"/>
<path d="M168.486 109.496C168.486 109.496 167.308 110.133 166.505 111.408C166.103 112.045 165.782 112.902 165.843 113.88C165.891 114.631 166.24 115.401 166.747 116.153C166.564 116.81 166.375 117.806 166.71 119.144C166.961 120.142 167.57 121.228 168.663 122.043C169.755 122.858 171.268 123.401 173.303 123.596C178.523 124.094 185.957 122.127 185.957 122.127C186.31 122.037 186.614 121.812 186.8 121.499C186.987 121.187 187.042 120.813 186.952 120.461C186.863 120.108 186.637 119.805 186.324 119.619C186.01 119.433 185.636 119.378 185.283 119.468C185.283 119.468 177.788 121.267 173.564 120.864C171.883 120.703 170.888 120.281 170.307 119.847C169.726 119.414 169.499 118.967 169.376 118.478C169.131 117.498 169.503 116.43 169.503 116.43C169.596 116.195 169.623 115.938 169.579 115.689C169.536 115.44 169.424 115.207 169.256 115.018C168.721 114.412 168.604 114.004 168.585 113.708C168.566 113.411 168.653 113.151 168.831 112.868C169.189 112.3 169.858 111.873 169.858 111.873C170.014 111.783 170.152 111.663 170.262 111.52C170.372 111.377 170.452 111.214 170.499 111.04C170.546 110.866 170.558 110.684 170.534 110.506C170.511 110.327 170.452 110.155 170.362 109.999C170.272 109.843 170.152 109.706 170.008 109.596C169.865 109.486 169.702 109.406 169.527 109.359C169.353 109.312 169.171 109.3 168.992 109.324C168.813 109.347 168.64 109.406 168.484 109.496L168.486 109.496Z" fill="#001B13"/>
<path d="M167.925 101.488C167.925 101.488 165.452 103.234 163.916 105.656C163.148 106.867 162.537 108.364 162.923 109.975C163.308 111.586 164.707 112.93 166.961 113.804C167.13 113.869 167.309 113.9 167.49 113.896C167.67 113.892 167.848 113.853 168.013 113.78C168.178 113.707 168.327 113.603 168.452 113.472C168.577 113.342 168.675 113.188 168.74 113.02C168.872 112.681 168.863 112.304 168.716 111.971C168.569 111.638 168.296 111.377 167.956 111.245C166.183 110.558 165.727 109.881 165.597 109.338C165.467 108.795 165.68 108.004 166.238 107.123C167.355 105.362 169.547 103.703 169.547 103.703C169.841 103.488 170.038 103.166 170.094 102.806C170.15 102.447 170.061 102.08 169.845 101.786C169.63 101.492 169.307 101.296 168.947 101.24C168.587 101.184 168.219 101.273 167.925 101.488Z" fill="#001B13"/>
<path d="M174.372 92.5396C171.232 92.5396 168.433 93.3188 166.247 94.2593C164.062 95.1998 162.538 96.2241 161.694 97.0904C161.694 97.092 161.694 97.0936 161.694 97.0952C160.867 97.9491 159.863 99.4791 160.241 101.422C160.43 102.394 161.027 103.367 162.002 104.135C162.977 104.903 164.309 105.508 166.127 105.97C166.48 106.06 166.855 106.006 167.168 105.82C167.482 105.634 167.708 105.332 167.798 104.98C167.888 104.627 167.834 104.254 167.648 103.941C167.462 103.628 167.16 103.402 166.807 103.312C165.241 102.915 164.26 102.419 163.705 101.982C163.149 101.544 163 101.207 162.94 100.899C162.82 100.283 163.306 99.38 163.668 99.0041L163.668 99.0025C163.669 99.0021 163.668 99.0017 163.668 99.0009C164.023 98.6374 165.432 97.5973 167.336 96.7783C169.242 95.9581 171.69 95.2839 174.372 95.2839C179.566 95.2839 186.475 99.1396 186.475 99.1396C186.79 99.3222 187.165 99.3727 187.517 99.2799C187.869 99.1871 188.17 98.9586 188.353 98.6446C188.444 98.489 188.503 98.317 188.527 98.1384C188.552 97.9599 188.541 97.7784 188.494 97.6042C188.448 97.43 188.368 97.2666 188.259 97.1233C188.15 96.9799 188.013 96.8595 187.857 96.7688C187.857 96.7688 180.839 92.5396 174.372 92.5396Z" fill="#001B13"/>
<path d="M176.236 78.2597L164.436 79.7761C164.074 79.8225 163.746 80.0104 163.523 80.2983C163.301 80.5862 163.202 80.9506 163.248 81.3114C163.271 81.4902 163.329 81.6627 163.419 81.8191C163.509 81.9754 163.629 82.1126 163.772 82.2227C163.915 82.3327 164.078 82.4136 164.253 82.4607C164.427 82.5077 164.609 82.52 164.788 82.4968L176.586 80.982C176.948 80.9355 177.276 80.7477 177.499 80.4598C177.721 80.1718 177.821 79.8074 177.774 79.4467C177.751 79.2679 177.693 79.0954 177.604 78.9389C177.514 78.7825 177.394 78.6453 177.251 78.535C177.109 78.4248 176.945 78.3438 176.771 78.2965C176.597 78.2493 176.415 78.2368 176.236 78.2597Z" fill="#001B13"/>
<path d="M172.387 78.7562C172.025 78.8004 171.696 78.9862 171.471 79.2726C171.247 79.559 171.146 79.9226 171.19 80.2836L172.88 94.0779C172.924 94.4388 173.11 94.7674 173.397 94.9915C173.684 95.2155 174.048 95.3167 174.41 95.2727C174.772 95.2285 175.101 95.0427 175.326 94.7563C175.55 94.4699 175.651 94.1062 175.607 93.7453L173.917 79.951C173.873 79.5901 173.687 79.2614 173.4 79.0374C173.113 78.8133 172.748 78.7122 172.387 78.7562ZM168.58 79.2432C168.218 79.2845 167.887 79.4675 167.661 79.7522C167.434 80.0369 167.329 80.3998 167.371 80.7612L168.939 94.5287C168.959 94.7078 169.015 94.8811 169.102 95.0388C169.189 95.1965 169.307 95.3355 169.448 95.4478C169.59 95.5601 169.752 95.6434 169.925 95.6932C170.099 95.743 170.28 95.7581 170.46 95.7377C170.639 95.7175 170.813 95.6622 170.971 95.575C171.129 95.4877 171.268 95.3702 171.381 95.2293C171.493 95.0883 171.577 94.9266 171.627 94.7534C171.677 94.5801 171.692 94.3988 171.671 94.2197L170.101 80.4507C170.06 80.0893 169.877 79.7591 169.591 79.5327C169.306 79.3062 168.942 79.2021 168.58 79.2432ZM177.561 120.799C177.382 120.821 177.209 120.878 177.051 120.967C176.894 121.056 176.756 121.174 176.645 121.316C176.534 121.458 176.452 121.621 176.403 121.795C176.355 121.968 176.342 122.15 176.364 122.328L197.504 294.078L197.073 302.404L194.458 294.922L174.833 122.078C174.813 121.899 174.758 121.725 174.67 121.568C174.583 121.41 174.465 121.271 174.324 121.159C174.183 121.047 174.021 120.963 173.847 120.913C173.673 120.864 173.492 120.848 173.312 120.869C173.133 120.889 172.959 120.944 172.801 121.032C172.643 121.119 172.504 121.236 172.392 121.377C172.279 121.518 172.195 121.68 172.146 121.853C172.096 122.026 172.081 122.208 172.101 122.387L191.744 295.383C191.756 295.484 191.779 295.584 191.812 295.68L196.786 309.915C196.891 310.215 197.098 310.468 197.37 310.633C197.642 310.798 197.963 310.863 198.277 310.818C198.592 310.773 198.882 310.62 199.097 310.386C199.311 310.152 199.438 309.851 199.455 309.534L200.256 294.1C200.26 294.021 200.257 293.941 200.248 293.862L179.093 121.993C179.048 121.632 178.862 121.303 178.574 121.08C178.287 120.856 177.923 120.755 177.561 120.799Z" fill="#001B13"/>
<path d="M186.444 137.481C186.263 137.489 186.086 137.532 185.923 137.608C185.759 137.684 185.612 137.792 185.49 137.924C185.368 138.057 185.273 138.213 185.211 138.382C185.149 138.551 185.121 138.731 185.129 138.911C185.137 139.091 185.18 139.268 185.256 139.431C185.333 139.595 185.44 139.741 185.573 139.863C185.573 139.863 191.769 145.567 195.164 149.816C195.276 149.957 195.415 150.074 195.573 150.161C195.731 150.249 195.905 150.304 196.084 150.324C196.264 150.344 196.445 150.329 196.619 150.279C196.792 150.229 196.954 150.146 197.095 150.034C197.237 149.921 197.354 149.782 197.442 149.625C197.529 149.467 197.584 149.294 197.604 149.115C197.625 148.936 197.609 148.754 197.559 148.581C197.509 148.408 197.426 148.247 197.313 148.106C193.656 143.528 187.432 137.842 187.432 137.842C187.3 137.72 187.144 137.626 186.974 137.564C186.804 137.502 186.624 137.474 186.444 137.481Z" fill="#001B13"/>
<path d="M235.008 76.5748C234.828 76.581 234.65 76.6225 234.486 76.6972C234.321 76.7718 234.173 76.878 234.05 77.0098C233.927 77.1415 233.831 77.2962 233.768 77.465C233.704 77.6338 233.675 77.8134 233.681 77.9935C233.681 77.9935 233.966 86.2083 234.008 95.3849C234.029 99.9732 233.99 104.801 233.825 108.946C233.66 113.09 233.344 116.61 232.922 118.298C231.849 122.587 230.183 127.379 224.042 130.557C217.901 133.735 206.968 135.246 187.399 131.873C187.04 131.812 186.671 131.895 186.374 132.104C186.076 132.314 185.874 132.633 185.812 132.991C185.781 133.168 185.786 133.35 185.825 133.526C185.865 133.702 185.939 133.868 186.043 134.015C186.147 134.162 186.279 134.288 186.431 134.384C186.584 134.48 186.754 134.546 186.932 134.577C206.802 138.001 218.314 136.612 225.307 132.992C232.301 129.373 234.461 123.469 235.588 118.962C236.136 116.77 236.404 113.266 236.572 109.055C236.739 104.844 236.778 99.9851 236.756 95.3723C236.714 86.1467 236.429 77.8989 236.429 77.8989C236.423 77.7188 236.382 77.5417 236.307 77.3776C236.232 77.2136 236.126 77.0659 235.994 76.9429C235.862 76.8199 235.707 76.7241 235.537 76.661C235.368 76.5978 235.188 76.5685 235.008 76.5748Z" fill="#001B13"/>
<path d="M204.877 133.769C204.698 133.745 204.516 133.756 204.341 133.801C204.167 133.847 204.003 133.926 203.859 134.035C203.715 134.144 203.594 134.28 203.503 134.436C203.412 134.592 203.352 134.764 203.328 134.942C203.328 134.942 202.803 138.751 202.29 142.967C201.777 147.184 201.259 151.623 201.319 153.596C201.319 153.597 201.319 153.598 201.319 153.599C201.36 154.872 202.156 155.982 203.168 156.623C204.18 157.264 205.409 157.609 206.823 157.833C209.65 158.283 213.262 158.202 217.108 157.89C217.471 157.861 217.808 157.689 218.044 157.412C218.28 157.135 218.396 156.776 218.367 156.413C218.338 156.051 218.165 155.715 217.888 155.479C217.61 155.244 217.25 155.128 216.887 155.157C213.148 155.46 209.658 155.506 207.256 155.124C206.054 154.933 205.137 154.621 204.642 154.307C204.147 153.994 204.076 153.851 204.065 153.511C204.028 152.258 204.51 147.488 205.019 143.298C205.529 139.108 206.051 135.316 206.051 135.316C206.1 134.956 206.005 134.59 205.785 134.3C205.565 134.01 205.238 133.819 204.877 133.769Z" fill="#001B13"/>
<path d="M195.556 36.5475C195.198 36.6173 194.882 36.8261 194.679 37.1279C194.475 37.4297 194.401 37.7999 194.471 38.1569C195.398 42.8948 197.187 46.6474 200.193 48.9514C203.199 51.2555 207.29 51.9269 212.261 50.9061C212.438 50.8698 212.606 50.799 212.755 50.698C212.905 50.5969 213.033 50.4674 213.132 50.3169C213.232 50.1664 213.3 49.9979 213.334 49.821C213.368 49.644 213.367 49.4621 213.33 49.2856C213.294 49.1091 213.223 48.9415 213.122 48.7924C213.021 48.6432 212.891 48.5154 212.74 48.4164C212.589 48.3173 212.421 48.2488 212.243 48.2148C212.066 48.1809 211.884 48.1821 211.707 48.2185C207.241 49.1354 204.14 48.5183 201.867 46.7761C199.594 45.034 198.02 41.9825 197.168 37.6304C197.098 37.2734 196.889 36.9587 196.587 36.7556C196.284 36.5525 195.913 36.4777 195.556 36.5475Z" fill="#001B13"/>
<path d="M208.039 39.4841C207.675 39.4772 207.322 39.615 207.06 39.8672C205.356 41.5039 203.781 42.0504 203.781 42.0504C203.437 42.1711 203.156 42.4231 202.998 42.7509C202.841 43.0787 202.82 43.4555 202.941 43.7985C203.061 44.1417 203.314 44.423 203.642 44.5805C203.971 44.7381 204.348 44.759 204.692 44.6387C204.692 44.6387 206.853 43.8744 208.966 41.8439C209.096 41.7189 209.201 41.5695 209.273 41.4044C209.345 41.2392 209.384 41.0614 209.387 40.8812C209.391 40.701 209.359 40.5219 209.293 40.3541C209.227 40.1863 209.128 40.0332 209.003 39.9034C208.75 39.6418 208.403 39.491 208.039 39.4841Z" fill="#001B13"/>
<path d="M202.715 22.6335C202.534 22.6304 202.355 22.6629 202.187 22.729C202.019 22.7952 201.866 22.8937 201.736 23.0191C201.606 23.1444 201.502 23.294 201.43 23.4594C201.359 23.6247 201.32 23.8026 201.317 23.9828C201.296 25.296 201.01 26.1865 200.712 26.6752C200.414 27.1638 200.176 27.236 200.046 27.2474C199.915 27.2587 199.723 27.235 199.42 26.8675C199.117 26.4999 198.781 25.78 198.665 24.678C198.627 24.3164 198.446 23.9848 198.163 23.7561C197.88 23.5273 197.518 23.4201 197.155 23.4579C196.793 23.4958 196.46 23.6758 196.23 23.9584C196.001 24.241 195.893 24.603 195.931 24.9649C196.09 26.4753 196.553 27.7079 197.297 28.6109C198.042 29.5138 199.147 30.0797 200.284 29.9807C201.421 29.8817 202.423 29.1431 203.059 28.1017C203.695 27.0603 204.04 25.7023 204.067 24.027C204.073 23.6633 203.933 23.3121 203.68 23.0508C203.426 22.7895 203.079 22.6394 202.715 22.6335Z" fill="#001B13"/>
<path d="M213.814 0.0685932C210.997 -0.141236 208.311 0.143021 205.869 0.747982C200.986 1.95789 197.069 4.3947 194.799 6.89873C193.539 8.28824 193.073 10.0299 193.352 11.615C193.631 13.2002 194.55 14.6037 195.791 15.7387C197.925 17.6906 201.101 18.8519 204.411 18.5918C204.426 19.217 204.403 19.4511 204.497 20.4629C204.664 22.287 204.872 24.3382 205.909 25.8822C205.909 25.8827 205.909 25.8833 205.909 25.8838C206.769 27.1632 208.191 28.0545 209.784 27.9582C211.378 27.862 212.881 26.7503 213.883 24.8734C214.623 23.4868 215.357 22.9924 215.807 22.8794C216.256 22.7664 216.633 22.872 217.138 23.3964C217.138 23.3969 217.138 23.3975 217.138 23.398C217.179 23.4398 217.496 23.9813 217.631 24.741C217.766 25.5007 217.782 26.4783 217.581 27.4933C217.178 29.5231 215.997 31.684 213.13 33.1144C212.232 33.5623 211.694 34.6162 211.69 35.4867C211.682 36.3572 211.98 37.1254 212.374 37.8811C213.16 39.3926 214.434 40.8592 215.784 41.9291C217.657 43.4156 219.69 44.4596 221.874 44.7696C224.057 45.0796 226.355 44.6099 228.548 43.269C233.182 40.4354 236.548 34.6875 236.411 27.2899L236.411 27.2883C236.349 23.7008 235.876 18.9063 233.922 14.2586C231.967 9.61019 228.467 5.10225 222.531 2.35113C219.573 0.981299 216.627 0.278462 213.811 0.0686333L213.814 0.0685932ZM213.599 2.79876C216.101 2.98422 218.722 3.61114 221.376 4.84008C226.656 7.28729 229.637 11.1531 231.389 15.3209C233.142 19.4888 233.606 23.9517 233.665 27.3371C233.665 27.3377 233.665 27.3382 233.665 27.3388C233.787 33.8865 230.843 38.6499 227.116 40.9297C225.387 41.9865 223.828 42.2754 222.265 42.0536C220.702 41.8317 219.101 41.055 217.497 39.7821C217.497 39.7816 217.497 39.7811 217.497 39.7805C216.477 38.9724 215.356 37.655 214.815 36.6153C214.547 36.1014 214.449 35.6643 214.447 35.5134C218 33.7031 219.744 30.726 220.28 28.0276C220.55 26.6662 220.538 25.3736 220.341 24.2633C220.144 23.1539 219.827 22.2265 219.12 21.4953C218.114 20.4508 216.612 19.8491 215.137 20.2201C213.662 20.5911 212.425 21.7722 211.458 23.5824C210.754 24.9023 210.088 25.1919 209.62 25.2202C209.152 25.2484 208.618 24.9882 208.192 24.3548C207.846 23.84 207.387 21.8825 207.233 20.2122C207.08 18.542 207.091 17.1116 207.091 17.1116C207.093 16.9041 207.047 16.699 206.958 16.5116C206.868 16.3243 206.738 16.1596 206.575 16.03C206.413 15.9004 206.223 15.8093 206.02 15.7635C205.818 15.7176 205.607 15.7183 205.405 15.7655C202.543 16.4322 199.446 15.3604 197.648 13.7163C196.749 12.8942 196.203 11.9624 196.059 11.1422C195.915 10.3219 196.068 9.58759 196.838 8.73829C198.627 6.7639 202.167 4.49152 206.531 3.41036C208.713 2.86979 211.096 2.6133 213.599 2.79876Z" fill="#001B13"/>
<path fill-rule="evenodd" clip-rule="evenodd" d="M205.717 17.1005C205.717 17.1005 205.668 23.0599 207.051 25.1188C208.337 27.0315 210.965 27.4246 212.671 24.2278C214.377 21.031 216.617 20.8768 218.13 22.4458C219.626 23.9921 220.232 31.1064 213.747 34.342C211.854 35.2854 214.272 38.977 216.642 40.855C220.119 43.6144 223.912 44.4973 227.834 42.0995C232.014 39.5427 235.168 34.2871 235.039 27.314C234.918 20.3409 233.171 8.79419 221.955 3.59585C210.731 -1.60167 199.878 3.34001 195.819 7.81844C191.759 12.2961 198.98 18.6703 205.717 17.1005Z" fill="#001B13"/>
<path d="M195.205 11.3707C194.841 11.3621 194.488 11.4982 194.224 11.7491C194.224 11.7491 189.782 15.7638 190.146 21.158C190.32 23.7406 191.329 25.5997 192.01 26.9998C192.69 28.4 193.01 29.1338 192.627 30.2407C192.028 31.9732 191.318 34.8008 187.234 36.5397C187.067 36.6103 186.917 36.713 186.791 36.8417C186.664 36.9704 186.565 37.1227 186.498 37.2899C186.43 37.457 186.396 37.6358 186.398 37.8159C186.4 37.9961 186.438 38.1741 186.509 38.3398C186.579 38.5055 186.682 38.6557 186.811 38.7817C186.94 38.9078 187.093 39.0073 187.26 39.0744C187.428 39.1416 187.607 39.1752 187.787 39.1733C187.968 39.1714 188.146 39.134 188.312 39.0633C193.364 36.9126 194.692 32.6795 195.225 31.1361L195.225 31.1345C195.933 29.0864 195.204 27.2861 194.483 25.8034C193.762 24.3203 193.021 22.9461 192.888 20.9736C192.637 17.2576 196.119 13.7352 196.119 13.7352C196.383 13.4843 196.536 13.1392 196.545 12.7756C196.554 12.412 196.418 12.0598 196.167 11.7963C196.043 11.6658 195.894 11.561 195.729 11.488C195.564 11.415 195.385 11.3752 195.205 11.3707Z" fill="#001B13"/>
<path d="M225.958 64.5695C221.753 64.3577 216.489 66.0743 213.589 72.6181C213.567 72.6684 213.548 72.72 213.533 72.7726C213.533 72.7726 211.812 78.3969 210.034 84.7778C208.257 91.1586 206.418 98.1231 206.166 101.515C206.139 101.878 206.258 102.236 206.496 102.512C206.734 102.787 207.071 102.957 207.435 102.984C207.798 103.011 208.157 102.893 208.433 102.655C208.709 102.418 208.879 102.081 208.907 101.718C209.1 99.1113 210.916 91.8539 212.683 85.5123C214.432 79.2336 216.093 73.8009 216.126 73.6916C218.628 68.0853 222.367 67.1368 225.819 67.3107C229.28 67.4851 232.222 69.0541 232.222 69.0541C232.381 69.1404 232.555 69.1946 232.734 69.2138C232.914 69.2329 233.095 69.2165 233.269 69.1656C233.442 69.1146 233.603 69.0301 233.744 68.9169C233.884 68.8036 234.001 68.6638 234.087 68.5055C234.262 68.1861 234.301 67.8107 234.198 67.462C234.095 67.1132 233.858 66.8195 233.538 66.6455C233.538 66.6455 230.163 64.7813 225.958 64.5695Z" fill="#001B13"/>
<path d="M234.048 52.3012C228.997 52.1668 223.809 53.4842 219.443 55.4806C215.076 57.4771 211.517 60.0956 209.756 63.009C208.833 64.5401 208.636 66.1944 208.883 67.656C209.13 69.1176 209.775 70.4057 210.492 71.4864C211.926 73.6479 213.743 75.0725 213.743 75.0725C214.028 75.2985 214.391 75.4021 214.753 75.3608C215.115 75.3194 215.446 75.1363 215.673 74.8518C215.899 74.5672 216.003 74.2045 215.962 73.8434C215.921 73.4822 215.738 73.1521 215.453 72.9256C215.453 72.9256 213.933 71.7038 212.784 69.9716C212.209 69.1054 211.751 68.1344 211.593 67.2004C211.435 66.267 211.531 65.3889 212.111 64.4261L212.111 64.4245C213.367 62.3481 216.561 59.817 220.588 57.9758C224.615 56.1341 229.46 54.9235 233.975 55.0439C236.289 55.1053 237.61 55.3654 238.6 55.8998C239.59 56.4341 240.422 57.3319 241.607 59.0051C242.282 59.9605 243.036 59.9823 243.892 60.1905C244.749 60.3988 245.819 60.6039 247.173 60.933C249.88 61.5912 253.697 62.7341 258.641 65.2584L258.641 65.2567C263.597 67.789 270.619 73.2303 276.556 80.1734C282.494 87.1164 287.352 95.5622 288.349 104.061C289.15 110.886 288.134 120.088 285.589 127.77C283.045 135.452 278.935 141.409 274.309 142.553C268.961 143.875 264.06 144.378 260.262 144.312C256.463 144.246 253.703 143.406 253.104 142.907L253.104 142.906C252.936 142.766 252.712 142.342 252.664 141.451C252.618 140.56 252.753 139.327 253.009 137.961C253.52 135.229 254.475 131.972 254.997 129.162C256.802 119.493 256.783 106.237 251.854 89.1882L251.854 89.1866C248.705 78.3097 244.479 70.5498 240.364 66.3081C238.306 64.1872 236.254 62.8673 234.125 62.7314C231.997 62.5956 230.053 63.9833 229.046 66.2293C228.972 66.3937 228.931 66.5711 228.926 66.7512C228.921 66.9313 228.952 67.1107 229.016 67.279C229.08 67.4473 229.177 67.6014 229.302 67.7323C229.426 67.8632 229.574 67.9685 229.739 68.042C229.904 68.1157 230.082 68.1562 230.262 68.1612C230.442 68.1663 230.622 68.1358 230.791 68.0716C230.96 68.0073 231.114 67.9105 231.245 67.7867C231.376 67.6629 231.482 67.5145 231.555 67.35C232.266 65.7661 232.933 65.4046 233.95 65.4695C234.967 65.5344 236.595 66.3659 238.39 68.2154C241.979 71.9144 246.15 79.3738 249.212 89.9495C254.035 106.636 254.016 119.438 252.295 128.661C251.814 131.246 250.857 134.514 250.306 137.458C250.031 138.93 249.852 140.321 249.919 141.596C249.987 142.871 250.309 144.153 251.342 145.013C253.145 146.514 256.134 146.985 260.214 147.056C264.295 147.127 269.4 146.592 274.969 145.215C281.261 143.66 285.521 136.718 288.2 128.631C290.879 120.543 291.942 111.103 291.078 103.741C289.987 94.4377 284.814 85.6044 278.646 78.3921C272.478 71.1797 265.321 65.5885 259.893 62.815C254.737 60.1821 250.669 58.9588 247.825 58.2673C246.403 57.9216 245.283 57.7043 244.545 57.5249C243.807 57.3455 243.563 57.0122 243.854 57.424C242.589 55.6366 241.466 54.3258 239.911 53.4864C238.356 52.6472 236.541 52.3672 234.052 52.301L234.048 52.3012Z" fill="#001B13"/>
<path fill-rule="evenodd" clip-rule="evenodd" d="M214.596 73.9992C214.596 73.9992 207.924 68.7064 210.933 63.7171C213.949 58.727 224.445 53.4181 234.012 53.6731C238.815 53.8007 240.279 54.7538 242.729 58.2153C243.498 59.3025 249.166 58.8796 259.267 64.0367C269.65 69.3424 287.627 86.0996 289.713 103.901C291.379 118.089 285.557 141.185 274.639 143.884C263.722 146.583 254.625 145.96 252.223 143.96C249.821 141.961 252.644 134.307 253.646 128.911C255.409 119.465 255.409 106.436 250.533 89.5684C244.322 68.1157 233.737 59.1305 230.3 66.7904C226.321 65.4911 218.72 64.4273 214.847 73.1727C214.847 73.1727 214.758 73.4681 214.596 73.9992Z" fill="#001B13"/>
<path d="M224.889 41.9021C224.537 41.999 224.239 42.2311 224.059 42.5474C223.88 42.8637 223.833 43.2382 223.93 43.5888C223.93 43.5888 225.949 51.1051 232.887 54.8704C233.207 55.0441 233.583 55.0837 233.933 54.9805C234.282 54.8773 234.576 54.6399 234.75 54.3203C234.924 54.0007 234.964 53.6251 234.861 53.2763C234.757 52.9275 234.519 52.634 234.199 52.4602C228.425 49.3267 226.579 42.8589 226.579 42.8589C226.481 42.5085 226.249 42.2108 225.932 42.0314C225.615 41.852 225.24 41.8055 224.889 41.9021Z" fill="#001B13"/>
<path d="M241.706 46.6328C240.196 46.6198 238.921 47.1486 238.089 47.9869C237.257 48.8251 236.87 49.8642 236.68 50.8084C236.301 52.6969 236.664 54.4403 236.664 54.4403C236.698 54.6173 236.767 54.7859 236.866 54.9365C236.965 55.0871 237.092 55.2168 237.242 55.3181C237.391 55.4194 237.559 55.4903 237.736 55.5269C237.912 55.5634 238.095 55.5648 238.272 55.5311C238.449 55.4974 238.619 55.4291 238.769 55.3302C238.92 55.2313 239.05 55.1037 239.152 54.9547C239.253 54.8057 239.324 54.6382 239.361 54.4617C239.398 54.2853 239.399 54.1034 239.365 53.9264C239.365 53.9264 239.133 52.5594 239.377 51.3475C239.498 50.7416 239.727 50.2343 240.041 49.9178C240.356 49.6013 240.758 49.3676 241.682 49.3756C244.582 49.4004 247.17 49.6996 248.807 50.3986C250.445 51.0976 251.129 51.8409 251.091 53.6363C250.986 58.23 251.034 61.086 251.034 61.086C251.041 61.4497 251.192 61.796 251.454 62.0487C251.716 62.3015 252.068 62.4399 252.432 62.4337C252.797 62.4274 253.144 62.2769 253.397 62.0153C253.65 61.7537 253.789 61.4024 253.783 61.0387C253.783 61.0387 253.735 58.2481 253.839 53.6962C253.839 53.6957 253.839 53.6952 253.839 53.6946C253.898 50.9147 252.173 48.8514 249.889 47.8765C247.605 46.9016 244.759 46.6589 241.706 46.6328Z" fill="#001B13"/>
<path fill-rule="evenodd" clip-rule="evenodd" d="M221.615 154.637C221.615 154.637 232.896 155.917 243.279 155.021C253.663 154.126 265.89 152.077 268.025 151.311C271.227 150.16 271.736 153.678 270.839 158.732C269.941 163.786 265.728 183.203 265.979 186.203C266.229 189.202 270.54 196.016 272.416 206.136C274.292 216.257 280.138 242.978 278.659 278.948C278.562 281.385 278.343 282.818 276.483 283.906C274.631 284.994 271.041 286.785 269.755 285.186C268.477 283.586 269.69 261.94 269.31 253.623C268.922 245.306 266.512 212.08 261.078 191.477C259.857 186.851 259.93 184.773 261.539 175.337C263.14 165.901 263.941 159.753 263.633 157.86C263.326 155.966 261.741 156.99 261.119 157.552C260.504 158.116 260.043 163.796 259.946 166.611C259.841 169.426 257.496 183.752 259.097 190.629C260.698 197.507 267.248 227.789 267.742 283.745C267.774 286.901 265.461 287.869 262.639 288.253C259.817 288.637 247.832 290.684 243.926 288.701C240.012 286.717 239.228 286.973 237.894 280.065C236.551 273.155 222.723 219.434 221.154 211.313C219.593 203.191 215.534 154.169 221.615 154.637Z" fill="#001B13"/>
<path d="M275.803 280.364C275.623 280.348 275.442 280.366 275.269 280.42C275.096 280.473 274.936 280.56 274.797 280.675C274.517 280.907 274.34 281.241 274.306 281.603C274.273 281.965 274.384 282.326 274.617 282.606C274.617 282.606 274.893 282.886 275.366 284.218C275.838 285.551 276.395 287.808 276.615 291.348C276.838 295.007 277.145 299.34 276.879 302.627C276.745 304.27 276.447 305.646 276.054 306.448C275.661 307.249 275.439 307.412 274.885 307.42C270.618 307.482 267.374 307.108 267.374 307.108C267.194 307.087 267.013 307.102 266.839 307.152C266.666 307.201 266.503 307.284 266.362 307.396C266.221 307.508 266.103 307.647 266.015 307.804C265.927 307.962 265.872 308.135 265.851 308.314C265.809 308.675 265.913 309.038 266.139 309.323C266.366 309.608 266.696 309.791 267.058 309.833C267.058 309.833 270.477 310.228 274.926 310.163C276.552 310.139 277.86 309.005 278.523 307.653C279.186 306.302 279.47 304.668 279.617 302.849C279.913 299.21 279.582 294.813 279.36 291.179L279.36 291.178C279.127 287.424 278.53 284.914 277.959 283.304C277.388 281.694 276.735 280.855 276.735 280.855C276.62 280.716 276.478 280.601 276.319 280.517C276.159 280.433 275.984 280.381 275.805 280.364L275.803 280.364Z" fill="#001B13"/>
<path d="M261.242 284.012C261.064 284.038 260.892 284.099 260.737 284.192C260.582 284.284 260.446 284.406 260.339 284.551C260.231 284.695 260.153 284.86 260.108 285.034C260.064 285.209 260.055 285.391 260.082 285.569C260.082 285.569 260.606 289.117 260.964 293.486C261.319 297.801 261.465 302.93 260.888 305.937C260.62 306.563 260.045 307.002 259.371 307.054C259.366 307.055 259.361 307.056 259.356 307.056C253.762 307.548 238.46 308.627 231.075 307.865C230.122 307.657 229.504 306.794 229.633 305.83C229.794 304.755 230.156 303.608 230.825 302.74C231.498 301.868 232.436 301.202 234.166 300.997C237.818 300.562 242.2 299.424 245.718 297.119C249.236 294.814 251.896 291.105 251.44 286.14C251.407 285.778 251.231 285.444 250.95 285.211C250.67 284.978 250.309 284.866 249.946 284.9C249.583 284.933 249.248 285.109 249.015 285.388C248.782 285.668 248.67 286.028 248.703 286.391C249.064 290.318 247.183 292.877 244.209 294.826C241.236 296.774 237.175 297.876 233.841 298.273C231.471 298.555 229.725 299.669 228.647 301.066C227.569 302.463 227.114 304.071 226.91 305.444C226.91 305.449 226.91 305.455 226.91 305.461C226.589 307.841 228.193 310.091 230.554 310.568C230.596 310.576 230.639 310.583 230.682 310.587C238.674 311.434 253.888 310.292 259.585 309.791C259.586 309.791 259.585 309.791 259.585 309.791C261.356 309.653 262.891 308.493 263.513 306.829C263.539 306.761 263.559 306.691 263.573 306.619C264.305 302.98 264.071 297.726 263.704 293.262C263.337 288.797 262.801 285.169 262.801 285.169C262.747 284.809 262.554 284.485 262.261 284.269C261.969 284.052 261.603 283.959 261.242 284.012Z" fill="#001B13"/>
</svg>
